<svg width="479" height="70" viewBox="0 0 479 70" fill="none" xmlns="http://www.w3.org/2000/svg">
<path d="M457.16 69.1838C453.909 69.1838 451.302 67.9265 449.34 65.4118C447.377 62.8358 446.396 59.2171 446.396 54.5558C446.396 50.5078 447.101 46.4905 448.512 42.5038C449.984 38.5171 451.885 34.8985 454.216 31.6478C456.546 28.3971 459.092 25.7905 461.852 23.8278C464.673 21.8651 467.402 20.8838 470.04 20.8838C472.922 20.8838 474.977 21.5891 476.204 22.9998C477.492 24.3491 478.136 26.1891 478.136 28.5198C478.136 31.2798 477.154 34.0398 475.192 36.7998C473.29 39.4985 470.592 41.9211 467.096 44.0678C463.661 46.2145 459.613 47.8091 454.952 48.8518C453.602 49.1585 452.897 49.9251 452.836 51.1518C452.774 51.5811 452.744 52.0411 452.744 52.5318C452.744 52.9611 452.744 53.3905 452.744 53.8198C452.744 57.3158 453.326 59.9531 454.492 61.7318C455.718 63.5105 457.374 64.3998 459.46 64.3998C461.79 64.3998 464.029 63.3265 466.176 61.1798C468.384 59.0331 470.224 55.9971 471.696 52.0718C471.88 51.5198 472.248 51.2438 472.8 51.2438C473.168 51.2438 473.382 51.3971 473.444 51.7038C473.566 52.0105 473.566 52.3785 473.444 52.8078C471.481 58.2051 469.089 62.2838 466.268 65.0438C463.508 67.8038 460.472 69.1838 457.16 69.1838ZM453.756 45.3558C453.633 45.7851 453.694 46.1531 453.94 46.4598C454.246 46.7051 454.614 46.7665 455.044 46.6438C458.846 45.6011 462.036 44.0371 464.612 41.9518C467.188 39.8051 469.12 37.4131 470.408 34.7758C471.757 32.1385 472.432 29.5625 472.432 27.0478C472.432 24.4718 471.42 23.1838 469.396 23.1838C467.617 23.1838 465.685 24.2265 463.6 26.3118C461.514 28.3971 459.582 31.1265 457.804 34.4998C456.025 37.8731 454.676 41.4918 453.756 45.3558Z" fill="white" style="fill:white;fill-opacity:1;"/>
<path d="M431.882 69.1838C429.858 69.1838 427.711 68.8771 425.442 68.2638C423.234 67.6505 421.547 66.8838 420.382 65.9638C419.953 65.5958 419.769 65.0438 419.83 64.3078L421.854 52.2558C421.977 51.4585 422.345 51.0598 422.958 51.0598C423.633 51.0598 423.97 51.4891 423.97 52.3478L424.154 56.7638C424.277 60.2598 425.105 62.8358 426.638 64.4918C428.233 66.0865 430.165 66.8838 432.434 66.8838C434.397 66.8838 436.083 66.2705 437.494 65.0438C438.905 63.7558 439.61 61.8851 439.61 59.4318C439.61 58.0211 439.395 56.7331 438.966 55.5678C438.537 54.3411 437.862 53.0531 436.942 51.7038C436.022 50.2931 434.765 48.6065 433.17 46.6438C431.085 43.9451 429.521 41.6451 428.478 39.7438C427.497 37.7811 427.006 35.7571 427.006 33.6718C427.006 29.8078 428.202 26.7105 430.594 24.3798C433.047 22.0491 436.145 20.8838 439.886 20.8838C441.542 20.8838 443.137 21.1291 444.67 21.6198C446.265 22.1105 447.583 22.8465 448.626 23.8278C449.178 24.2571 449.362 24.8091 449.178 25.4838L446.602 37.8118C446.418 38.6091 446.05 39.0078 445.498 39.0078C444.946 39.0078 444.609 38.5785 444.486 37.7198L444.21 33.3038C443.965 29.6238 443.474 26.9865 442.738 25.3918C442.063 23.7971 440.622 22.9998 438.414 22.9998C436.451 22.9998 434.857 23.6745 433.63 25.0238C432.403 26.3731 431.79 27.9985 431.79 29.8998C431.79 31.9238 432.342 33.7945 433.446 35.5118C434.55 37.1678 436.053 39.2838 437.954 41.8598C440.469 45.1718 442.155 47.8091 443.014 49.7718C443.934 51.7345 444.394 53.7278 444.394 55.7518C444.394 58.3278 443.811 60.6278 442.646 62.6518C441.542 64.6758 440.039 66.2705 438.138 67.4358C436.237 68.6011 434.151 69.1838 431.882 69.1838Z" fill="white" style="fill:white;fill-opacity:1;"/>
<path d="M389.504 69.1838C387.296 69.1838 385.578 68.2331 384.352 66.3318C383.125 64.4305 382.512 61.6398 382.512 57.9598C382.512 54.4638 383.002 50.9678 383.984 47.4718C384.965 43.9145 386.314 40.5411 388.032 37.3518C389.749 34.1625 391.681 31.3411 393.828 28.8878C396.036 26.4345 398.336 24.5025 400.728 23.0918C403.181 21.6198 405.604 20.8838 407.996 20.8838C409.161 20.8838 410.265 21.1291 411.308 21.6198C412.35 22.0491 413.209 22.7545 413.884 23.7358C414.252 24.2878 414.62 24.5638 414.988 24.5638C415.356 24.5638 415.724 24.2878 416.092 23.7358C416.766 22.7545 417.318 22.1411 417.748 21.8958C418.177 21.5891 418.576 21.4358 418.944 21.4358C419.741 21.4358 420.048 21.8651 419.864 22.7238L411.676 57.9598C410.756 61.9465 411.369 63.9398 413.516 63.9398C414.926 63.9398 416.184 62.9891 417.288 61.0878C418.453 59.1865 419.618 56.2425 420.784 52.2558C420.968 51.5811 421.366 51.2438 421.98 51.2438C422.409 51.2438 422.685 51.4278 422.808 51.7958C422.93 52.1638 422.93 52.5931 422.808 53.0838C421.642 58.8491 420.078 62.9891 418.116 65.5038C416.153 67.9571 413.792 69.1838 411.032 69.1838C408.64 69.1838 406.922 68.1718 405.88 66.1478C404.898 64.1238 404.806 61.3638 405.604 57.8678L406.8 52.8078C406.922 52.3785 406.83 52.1331 406.524 52.0718C406.278 52.0105 406.064 52.1638 405.88 52.5318C402.506 58.7265 399.501 63.0505 396.864 65.5038C394.288 67.9571 391.834 69.1838 389.504 69.1838ZM391.804 64.4918C393.276 64.4918 394.901 63.6025 396.68 61.8238C398.458 60.0451 400.206 57.7451 401.924 54.9238C403.702 52.1025 405.328 49.0665 406.8 45.8158C408.272 42.5651 409.437 39.4371 410.296 36.4318C411.216 33.4265 411.676 30.8811 411.676 28.7958C411.676 25.0545 410.357 23.1838 407.72 23.1838C406.125 23.1838 404.438 23.9198 402.66 25.3918C400.881 26.8025 399.164 28.7345 397.508 31.1878C395.913 33.6411 394.441 36.4318 393.092 39.5598C391.804 42.6265 390.761 45.8465 389.964 49.2198C389.166 52.5318 388.768 55.7825 388.768 58.9718C388.768 61.1185 389.013 62.5905 389.504 63.3878C390.056 64.1238 390.822 64.4918 391.804 64.4918Z" fill="white" style="fill:white;fill-opacity:1;"/>
<path d="M357.887 69.184C355.801 69.184 353.931 68.632 352.275 67.528C350.68 66.3627 349.545 64.6453 348.871 62.376C348.257 60.0453 348.349 57.1627 349.147 53.728L359.451 9.476C359.757 8.372 359.757 7.60533 359.451 7.176C359.205 6.74667 358.653 6.50133 357.795 6.44L355.035 6.164C354.115 6.10267 353.716 5.704 353.839 4.968C353.961 4.416 354.391 4.07867 355.127 3.956C357.335 3.588 359.297 3.15867 361.015 2.668C362.732 2.116 364.112 1.41066 365.155 0.551998C365.645 0.183999 366.105 0 366.535 0C367.271 0 367.547 0.46 367.363 1.38L358.991 37.536C358.929 37.9653 359.021 38.2107 359.267 38.272C359.512 38.3333 359.727 38.18 359.911 37.812C363.284 31.372 366.289 26.956 368.927 24.564C371.625 22.1107 374.14 20.884 376.471 20.884C378.74 20.884 380.519 21.8347 381.807 23.736C383.156 25.6373 383.831 28.428 383.831 32.108C383.831 35.604 383.309 39.1307 382.267 42.688C381.285 46.184 379.905 49.5267 378.127 52.716C376.409 55.9053 374.416 58.7267 372.147 61.18C369.939 63.6333 367.608 65.596 365.155 67.068C362.701 68.4787 360.279 69.184 357.887 69.184ZM358.163 66.884C359.757 66.884 361.444 66.1787 363.223 64.768C365.001 63.296 366.719 61.364 368.375 58.972C370.092 56.5187 371.625 53.7893 372.975 50.784C374.324 47.7173 375.397 44.5893 376.195 41.4C376.992 38.1493 377.391 35.0213 377.391 32.016C377.391 29.6853 377.145 28.06 376.655 27.14C376.164 26.1587 375.305 25.668 374.079 25.668C372.729 25.668 371.196 26.496 369.479 28.152C367.761 29.808 366.013 32.016 364.235 34.776C362.456 37.4747 360.8 40.4187 359.267 43.608C357.733 46.7973 356.507 49.956 355.587 53.084C354.667 56.1507 354.207 58.88 354.207 61.272C354.207 65.0133 355.525 66.884 358.163 66.884Z" fill="white" style="fill:white;fill-opacity:1;"/>
<path d="M313.668 69.1838C311.46 69.1838 309.743 68.2331 308.516 66.3318C307.29 64.4305 306.676 61.6398 306.676 57.9598C306.676 54.4638 307.167 50.9678 308.148 47.4718C309.13 43.9145 310.479 40.5411 312.196 37.3518C313.914 34.1625 315.846 31.3411 317.992 28.8878C320.2 26.4345 322.5 24.5025 324.892 23.0918C327.346 21.6198 329.768 20.8838 332.16 20.8838C333.326 20.8838 334.43 21.1291 335.472 21.6198C336.515 22.0491 337.374 22.7545 338.048 23.7358C338.416 24.2878 338.784 24.5638 339.152 24.5638C339.52 24.5638 339.888 24.2878 340.256 23.7358C340.931 22.7545 341.483 22.1411 341.912 21.8958C342.342 21.5891 342.74 21.4358 343.108 21.4358C343.906 21.4358 344.212 21.8651 344.028 22.7238L335.84 57.9598C334.92 61.9465 335.534 63.9398 337.68 63.9398C339.091 63.9398 340.348 62.9891 341.452 61.0878C342.618 59.1865 343.783 56.2425 344.948 52.2558C345.132 51.5811 345.531 51.2438 346.144 51.2438C346.574 51.2438 346.85 51.4278 346.972 51.7958C347.095 52.1638 347.095 52.5931 346.972 53.0838C345.807 58.8491 344.243 62.9891 342.28 65.5038C340.318 67.9571 337.956 69.1838 335.196 69.1838C332.804 69.1838 331.087 68.1718 330.044 66.1478C329.063 64.1238 328.971 61.3638 329.768 57.8678L330.964 52.8078C331.087 52.3785 330.995 52.1331 330.688 52.0718C330.443 52.0105 330.228 52.1638 330.044 52.5318C326.671 58.7265 323.666 63.0505 321.028 65.5038C318.452 67.9571 315.999 69.1838 313.668 69.1838ZM315.968 64.4918C317.44 64.4918 319.066 63.6025 320.844 61.8238C322.623 60.0451 324.371 57.7451 326.088 54.9238C327.867 52.1025 329.492 49.0665 330.964 45.8158C332.436 42.5651 333.602 39.4371 334.46 36.4318C335.38 33.4265 335.84 30.8811 335.84 28.7958C335.84 25.0545 334.522 23.1838 331.884 23.1838C330.29 23.1838 328.603 23.9198 326.824 25.3918C325.046 26.8025 323.328 28.7345 321.672 31.1878C320.078 33.6411 318.606 36.4318 317.256 39.5598C315.968 42.6265 314.926 45.8465 314.128 49.2198C313.331 52.5318 312.932 55.7825 312.932 58.9718C312.932 61.1185 313.178 62.5905 313.668 63.3878C314.22 64.1238 314.987 64.4918 315.968 64.4918Z" fill="white" style="fill:white;fill-opacity:1;"/>
<path d="M293.478 69.184C291.393 69.184 289.767 68.356 288.602 66.7C287.437 65.044 287.253 62.3759 288.05 58.6959L295.686 25.392C295.87 24.472 295.502 24.012 294.582 24.012H291.086C290.227 24.012 289.798 23.6133 289.798 22.8159C289.798 22.3866 289.951 22.0493 290.258 21.804C290.565 21.5586 290.933 21.4359 291.362 21.4359H294.674C296.085 21.4359 296.913 20.792 297.158 19.504L299.366 9.65995C299.55 8.98529 299.979 8.64795 300.654 8.64795H304.426C305.285 8.64795 305.622 9.04661 305.438 9.84395L303.138 20.056C302.954 20.9759 303.322 21.4359 304.242 21.4359H309.486C310.529 21.4359 311.05 21.8346 311.05 22.632C311.05 23.552 310.406 24.012 309.118 24.012H304.15C302.801 24.012 301.973 24.656 301.666 25.944L293.938 59.616C293.631 60.9653 293.662 62.0386 294.03 62.836C294.459 63.572 295.165 63.94 296.146 63.94C297.557 63.94 298.845 63.1426 300.01 61.548C301.237 59.9533 302.525 56.9173 303.874 52.44C304.119 51.6426 304.518 51.244 305.07 51.244C305.499 51.244 305.775 51.428 305.898 51.796C306.021 52.164 305.929 52.8386 305.622 53.82C304.457 57.9906 303.169 61.18 301.758 63.388C300.409 65.596 299.029 67.1293 297.618 67.988C296.207 68.7853 294.827 69.184 293.478 69.184Z" fill="white" style="fill:white;fill-opacity:1;"/>
<path d="M253.466 69.1838C251.258 69.1838 249.541 68.2331 248.314 66.3318C247.087 64.4305 246.474 61.6398 246.474 57.9598C246.474 54.4638 246.965 50.9678 247.946 47.4718C248.927 43.9145 250.277 40.5411 251.994 37.3518C253.711 34.1625 255.643 31.3411 257.79 28.8878C259.998 26.4345 262.298 24.5025 264.69 23.0918C267.143 21.6198 269.566 20.8838 271.958 20.8838C273.123 20.8838 274.227 21.1291 275.27 21.6198C276.313 22.0491 277.171 22.7545 277.846 23.7358C278.214 24.2878 278.582 24.5638 278.95 24.5638C279.318 24.5638 279.686 24.2878 280.054 23.7358C280.729 22.7545 281.281 22.1411 281.71 21.8958C282.139 21.5891 282.538 21.4358 282.906 21.4358C283.703 21.4358 284.01 21.8651 283.826 22.7238L275.638 57.9598C274.718 61.9465 275.331 63.9398 277.478 63.9398C278.889 63.9398 280.146 62.9891 281.25 61.0878C282.415 59.1865 283.581 56.2425 284.746 52.2558C284.93 51.5811 285.329 51.2438 285.942 51.2438C286.371 51.2438 286.647 51.4278 286.77 51.7958C286.893 52.1638 286.893 52.5931 286.77 53.0838C285.605 58.8491 284.041 62.9891 282.078 65.5038C280.115 67.9571 277.754 69.1838 274.994 69.1838C272.602 69.1838 270.885 68.1718 269.842 66.1478C268.861 64.1238 268.769 61.3638 269.566 57.8678L270.762 52.8078C270.885 52.3785 270.793 52.1331 270.486 52.0718C270.241 52.0105 270.026 52.1638 269.842 52.5318C266.469 58.7265 263.463 63.0505 260.826 65.5038C258.25 67.9571 255.797 69.1838 253.466 69.1838ZM255.766 64.4918C257.238 64.4918 258.863 63.6025 260.642 61.8238C262.421 60.0451 264.169 57.7451 265.886 54.9238C267.665 52.1025 269.29 49.0665 270.762 45.8158C272.234 42.5651 273.399 39.4371 274.258 36.4318C275.178 33.4265 275.638 30.8811 275.638 28.7958C275.638 25.0545 274.319 23.1838 271.682 23.1838C270.087 23.1838 268.401 23.9198 266.622 25.3918C264.843 26.8025 263.126 28.7345 261.47 31.1878C259.875 33.6411 258.403 36.4318 257.054 39.5598C255.766 42.6265 254.723 45.8465 253.926 49.2198C253.129 52.5318 252.73 55.7825 252.73 58.9718C252.73 61.1185 252.975 62.5905 253.466 63.3878C254.018 64.1238 254.785 64.4918 255.766 64.4918Z" fill="white" style="fill:white;fill-opacity:1;"/>
<path d="M197.61 68.3557C196.751 68.3557 196.322 68.0491 196.322 67.4357C196.322 66.7611 196.935 66.3317 198.162 66.1477L200.002 65.8717C201.351 65.6877 202.271 65.3811 202.762 64.9517C203.314 64.4611 203.712 63.5717 203.958 62.2837L216.47 8.18772C216.776 6.89972 216.776 6.04106 216.47 5.61172C216.163 5.18239 215.396 4.84506 214.17 4.59972L212.33 4.23172C211.532 4.04772 211.134 3.71039 211.134 3.21972C211.134 2.48372 211.686 2.11572 212.79 2.11572H231.282C236.556 2.11572 240.727 4.07839 243.794 8.00372C246.922 11.8677 248.486 17.6331 248.486 25.2997C248.486 30.9424 247.596 36.3704 245.818 41.5837C244.039 46.7357 241.647 51.3357 238.642 55.3837C235.636 59.3704 232.202 62.5291 228.338 64.8597C224.535 67.1904 220.548 68.3557 216.378 68.3557H197.61ZM216.838 65.9637C220.334 65.9637 223.615 64.6757 226.682 62.0997C229.748 59.5237 232.447 56.0277 234.778 51.6117C237.108 47.1344 238.918 42.1051 240.206 36.5237C241.555 30.9424 242.23 25.1771 242.23 19.2277C242.23 14.3211 241.218 10.6411 239.194 8.18772C237.17 5.73439 234.348 4.50772 230.73 4.50772C226.13 4.50772 223.308 6.74639 222.266 11.2237L211.226 59.2477C210.674 61.7011 210.888 63.4491 211.87 64.4917C212.912 65.4731 214.568 65.9637 216.838 65.9637Z" fill="white" style="fill:white;fill-opacity:1;"/>
<path d="M175.678 69.184C173.593 69.184 171.968 68.356 170.802 66.7C169.637 65.044 169.453 62.3759 170.25 58.6959L177.886 25.392C178.07 24.472 177.702 24.012 176.782 24.012H173.286C172.428 24.012 171.998 23.6133 171.998 22.8159C171.998 22.3866 172.152 22.0493 172.458 21.804C172.765 21.5586 173.133 21.4359 173.562 21.4359H176.874C178.285 21.4359 179.113 20.792 179.358 19.504L181.566 9.65995C181.75 8.98529 182.18 8.64795 182.854 8.64795H186.626C187.485 8.64795 187.822 9.04661 187.638 9.84395L185.338 20.056C185.154 20.9759 185.522 21.4359 186.442 21.4359H191.686C192.729 21.4359 193.25 21.8346 193.25 22.632C193.25 23.552 192.606 24.012 191.318 24.012H186.35C185.001 24.012 184.173 24.656 183.866 25.944L176.138 59.616C175.832 60.9653 175.862 62.0386 176.23 62.836C176.66 63.572 177.365 63.94 178.346 63.94C179.757 63.94 181.045 63.1426 182.21 61.548C183.437 59.9533 184.725 56.9173 186.074 52.44C186.32 51.6426 186.718 51.244 187.27 51.244C187.7 51.244 187.976 51.428 188.098 51.796C188.221 52.164 188.129 52.8386 187.822 53.82C186.657 57.9906 185.369 61.18 183.958 63.388C182.609 65.596 181.229 67.1293 179.818 67.988C178.408 68.7853 177.028 69.184 175.678 69.184Z" fill="white" style="fill:white;fill-opacity:1;"/>
<path d="M141.991 68.3558C141.133 68.3558 140.795 67.9571 140.979 67.1598L149.719 30.4518C150.026 29.1025 150.057 28.0598 149.811 27.3238C149.627 26.5265 149.075 26.1278 148.155 26.1278C147.051 26.1278 145.825 26.9558 144.475 28.6118C143.187 30.2065 141.715 33.2731 140.059 37.8118C139.814 38.6091 139.385 39.0078 138.771 39.0078C137.851 39.0078 137.606 38.4558 138.035 37.3518C139.385 33.1198 140.795 29.8078 142.267 27.4158C143.801 25.0238 145.334 23.3371 146.867 22.3558C148.401 21.3745 149.811 20.8838 151.099 20.8838C153.123 20.8838 154.565 21.6505 155.423 23.1838C156.282 24.6558 156.313 27.1091 155.515 30.5438L154.503 34.8678C154.442 35.2971 154.534 35.5425 154.779 35.6038C155.025 35.6651 155.239 35.5118 155.423 35.1438C157.754 29.8078 159.87 26.0971 161.771 24.0118C163.673 21.9265 165.85 20.8838 168.303 20.8838C169.959 20.8838 171.186 21.3438 171.983 22.2638C172.842 23.1225 173.271 24.3185 173.271 25.8518C173.271 27.3851 172.903 28.6118 172.167 29.5318C171.431 30.4518 170.481 30.9118 169.315 30.9118C168.334 30.9118 167.629 30.6665 167.199 30.1758C166.77 29.6851 166.433 29.1331 166.187 28.5198C166.003 27.8451 165.789 27.2625 165.543 26.7718C165.298 26.2811 164.899 26.0358 164.347 26.0358C163.427 26.0358 162.231 27.2011 160.759 29.5318C159.287 31.8625 157.693 35.0211 155.975 39.0078C154.319 42.9331 152.694 47.3491 151.099 52.2558C149.566 57.1625 148.217 62.1918 147.051 67.3438C146.867 68.0185 146.438 68.3558 145.763 68.3558H141.991Z" fill="white" style="fill:white;fill-opacity:1;"/>
<path d="M132.047 12.6961C130.882 12.6961 129.901 12.2975 129.103 11.5001C128.367 10.6415 127.999 9.62947 127.999 8.46413C127.999 6.80813 128.49 5.48947 129.471 4.50814C130.514 3.5268 131.679 3.03613 132.967 3.03613C134.194 3.03613 135.206 3.4348 136.003 4.23213C136.862 4.96813 137.291 5.94946 137.291 7.17613C137.291 8.89347 136.77 10.2428 135.727 11.2241C134.685 12.2055 133.458 12.6961 132.047 12.6961ZM124.503 69.2761C122.479 69.2761 121.038 68.5401 120.179 67.0681C119.321 65.5348 119.29 63.0508 120.087 59.6161L126.895 30.4521C127.202 29.1028 127.233 28.0601 126.987 27.3241C126.803 26.5268 126.251 26.1281 125.331 26.1281C124.227 26.1281 123.001 26.9561 121.651 28.6121C120.363 30.2068 118.891 33.2735 117.235 37.8121C116.99 38.6095 116.561 39.0081 115.947 39.0081C115.027 39.0081 114.782 38.4561 115.211 37.3521C116.561 33.1201 117.971 29.8081 119.443 27.4161C120.977 25.0241 122.51 23.3375 124.043 22.3561C125.577 21.3748 126.987 20.8841 128.275 20.8841C130.422 20.8841 131.925 21.6508 132.783 23.1841C133.642 24.6561 133.673 27.1095 132.875 30.5441L126.067 59.7081C125.761 61.0575 125.699 62.1308 125.883 62.9281C126.129 63.6641 126.711 64.0321 127.631 64.0321C128.735 64.0321 129.931 63.2348 131.219 61.6401C132.569 59.9841 134.071 56.8868 135.727 52.3481C135.973 51.5508 136.402 51.1521 137.015 51.1521C137.935 51.1521 138.181 51.7041 137.751 52.8081C136.463 56.9788 135.022 60.2908 133.427 62.7441C131.894 65.1361 130.361 66.8228 128.827 67.8041C127.294 68.7855 125.853 69.2761 124.503 69.2761Z" fill="white" style="fill:white;fill-opacity:1;"/>
<path d="M102.829 69.184C100.621 69.184 98.9655 68.264 97.8615 66.424C96.7575 64.584 96.6962 61.732 97.6775 57.868L104.761 31.188C105.436 28.796 105.528 27.14 105.037 26.22C104.608 25.3 103.964 24.84 103.105 24.84C101.756 24.84 100.223 25.6987 98.5055 27.416C96.8495 29.072 95.1015 31.372 93.2615 34.316C91.4828 37.1987 89.7348 40.48 88.0175 44.16C86.3615 47.7787 84.8282 51.612 83.4175 55.66C82.0068 59.6467 80.8722 63.5413 80.0135 67.344C79.8295 68.0187 79.4002 68.356 78.7255 68.356H74.8615C74.0028 68.356 73.6655 67.9573 73.8495 67.16L87.2815 9.476C87.5882 8.372 87.5882 7.60533 87.2815 7.176C87.0362 6.74667 86.4842 6.50133 85.6255 6.44L82.8655 6.164C81.9455 6.10267 81.5468 5.704 81.6695 4.968C81.7922 4.416 82.2215 4.07867 82.9575 3.956C85.1655 3.588 87.1282 3.15867 88.8455 2.668C90.5628 2.116 91.9428 1.41066 92.9855 0.551998C93.4762 0.183999 93.9362 0 94.3655 0C95.1015 0 95.3775 0.46 95.1935 1.38L86.1775 40.48C86.1162 40.9093 86.2082 41.1547 86.4535 41.216C86.6988 41.2773 86.9135 41.124 87.0975 40.756C89.5508 35.7267 91.8815 31.7707 94.0895 28.888C96.2975 26.0053 98.3522 23.9507 100.253 22.724C102.216 21.4973 103.995 20.884 105.589 20.884C107.859 20.884 109.515 21.804 110.557 23.644C111.6 25.484 111.6 28.3053 110.557 32.108L103.565 58.788C103.136 60.5053 103.105 61.7933 103.473 62.652C103.841 63.5107 104.516 63.94 105.497 63.94C106.724 63.94 107.92 63.1427 109.085 61.548C110.251 59.892 111.508 56.7947 112.857 52.256C113.041 51.5813 113.44 51.244 114.053 51.244C114.544 51.244 114.82 51.428 114.881 51.796C115.004 52.164 115.004 52.5933 114.881 53.084C113.716 57.2547 112.459 60.536 111.109 62.928C109.76 65.2587 108.38 66.884 106.969 67.804C105.62 68.724 104.24 69.184 102.829 69.184Z" fill="white" style="fill:white;fill-opacity:1;"/>
<path d="M59.7958 69.1838C57.7718 69.1838 55.6251 68.8771 53.3558 68.2638C51.1478 67.6505 49.4611 66.8838 48.2958 65.9638C47.8665 65.5958 47.6825 65.0438 47.7438 64.3078L49.7678 52.2558C49.8905 51.4585 50.2585 51.0598 50.8718 51.0598C51.5465 51.0598 51.8838 51.4891 51.8838 52.3478L52.0678 56.7638C52.1905 60.2598 53.0185 62.8358 54.5518 64.4918C56.1465 66.0865 58.0785 66.8838 60.3478 66.8838C62.3105 66.8838 63.9971 66.2705 65.4078 65.0438C66.8185 63.7558 67.5238 61.8851 67.5238 59.4318C67.5238 58.0211 67.3091 56.7331 66.8798 55.5678C66.4505 54.3411 65.7758 53.0531 64.8558 51.7038C63.9358 50.2931 62.6785 48.6065 61.0838 46.6438C58.9985 43.9451 57.4345 41.6451 56.3918 39.7438C55.4105 37.7811 54.9198 35.7571 54.9198 33.6718C54.9198 29.8078 56.1158 26.7105 58.5078 24.3798C60.9611 22.0491 64.0585 20.8838 67.7998 20.8838C69.4558 20.8838 71.0505 21.1291 72.5838 21.6198C74.1785 22.1105 75.4971 22.8465 76.5398 23.8278C77.0918 24.2571 77.2758 24.8091 77.0918 25.4838L74.5158 37.8118C74.3318 38.6091 73.9638 39.0078 73.4118 39.0078C72.8598 39.0078 72.5225 38.5785 72.3998 37.7198L72.1238 33.3038C71.8785 29.6238 71.3878 26.9865 70.6518 25.3918C69.9771 23.7971 68.5358 22.9998 66.3278 22.9998C64.3651 22.9998 62.7705 23.6745 61.5438 25.0238C60.3171 26.3731 59.7038 27.9985 59.7038 29.8998C59.7038 31.9238 60.2558 33.7945 61.3598 35.5118C62.4638 37.1678 63.9665 39.2838 65.8678 41.8598C68.3825 45.1718 70.0691 47.8091 70.9278 49.7718C71.8478 51.7345 72.3078 53.7278 72.3078 55.7518C72.3078 58.3278 71.7251 60.6278 70.5598 62.6518C69.4558 64.6758 67.9531 66.2705 66.0518 67.4358C64.1505 68.6011 62.0651 69.1838 59.7958 69.1838Z" fill="white" style="fill:white;fill-opacity:1;"/>
<path d="M28.1879 44.5279C27.5746 44.5279 27.3293 44.2212 27.4519 43.6079L27.7279 42.3199C27.8506 41.7066 28.2493 41.3999 28.9239 41.3999H51.1879C51.8013 41.3999 52.0159 41.7066 51.8319 42.3199L51.5559 43.6079C51.4333 44.2212 51.0653 44.5279 50.4519 44.5279H28.1879Z" fill="white" style="fill:white;fill-opacity:1;"/>
<path d="M1.288 68.3558C0.429333 68.3558 0 68.0492 0 67.4358C0 66.8225 0.490666 66.4238 1.472 66.2398L5.336 65.5958C6.56267 65.4118 7.48267 65.1052 8.096 64.6758C8.70933 64.1852 9.13867 63.2958 9.384 62.0078L22.172 6.80784C22.356 5.94917 22.264 5.33584 21.896 4.96784C21.5893 4.59984 20.8533 4.41584 19.688 4.41584C17.6027 4.41584 15.3027 5.2745 12.788 6.99183C10.3347 8.64784 8.12667 11.7758 6.164 16.3758L4.692 19.8718C4.38533 20.6692 3.864 21.0678 3.128 21.0678C2.26933 21.0678 1.99333 20.5465 2.3 19.5038L6.9 2.85184C7.268 1.44117 7.94267 0.73584 8.924 0.73584C9.476 0.73584 9.90533 0.858506 10.212 1.10384C10.58 1.28784 11.1627 1.5025 11.96 1.74784C12.7573 1.99317 14.1373 2.11584 16.1 2.11584H36.616C38.5787 2.11584 40.02 1.99317 40.94 1.74784C41.9213 1.5025 42.6267 1.28784 43.056 1.10384C43.5467 0.858506 43.976 0.73584 44.344 0.73584C45.3867 0.73584 45.7547 1.44117 45.448 2.85184L42.504 19.5038C42.32 20.5465 41.7987 21.0678 40.94 21.0678C40.1427 21.0678 39.8053 20.6692 39.928 19.8718L40.112 17.5718C40.48 13.0332 39.8973 9.72117 38.364 7.63584C36.8307 5.48917 34.684 4.41584 31.924 4.41584C30.7587 4.41584 29.9307 4.59984 29.44 4.96784C29.0107 5.33584 28.704 5.94917 28.52 6.80784L15.732 62.0078C15.4253 63.2958 15.456 64.1852 15.824 64.6758C16.2533 65.1052 17.0507 65.4118 18.216 65.5958L22.54 66.2398C23.2147 66.3012 23.552 66.6385 23.552 67.2518C23.552 67.9878 23.0613 68.3558 22.08 68.3558H1.288Z" fill="white" style="fill:white;fill-opacity:1;"/>
</svg>
